HIERARCHY
ROOT Hips
{
  OFFSET 3.13124 94.3669 -3.18751
  CHANNELS  6 Xposition Yposition Zposition Zrotation Xrotation Yrotation
  JOINT LeftUpLeg
  {
    OFFSET 8.64259 1.95398 -2.38835
    CHANNELS 3 Zrotation Xrotation Yrotation
    JOINT LeftLeg
    {
      OFFSET 43.7702 0 0
      CHANNELS 3 Zrotation Xrotation Yrotation
      JOINT LeftFoot
      {
        OFFSET 40.6238 0 0
        CHANNELS 3 Zrotation Xrotation Yrotation
        JOINT LeftToeBase
        {
          OFFSET 12.7242 0 0
          CHANNELS 3 Zrotation Xrotation Yrotation
          End Site
          {
            OFFSET 0 0 0
          }
        }
      }
    }
  }
  JOINT RightUpLeg
  {
    OFFSET -8.2249 1.95398 -2.59336
    CHANNELS 3 Zrotation Xrotation Yrotation
    JOINT RightLeg
    {
      OFFSET 43.5653 0 0
      CHANNELS 3 Zrotation Xrotation Yrotation
      JOINT RightFoot
      {
        OFFSET 40.6238 0 0
        CHANNELS 3 Zrotation Xrotation Yrotation
        JOINT RightToeBase
        {
          OFFSET 12.7242 0 0
          CHANNELS 3 Zrotation Xrotation Yrotation
          End Site
          {
            OFFSET 0 0 0
          }
        }
      }
    }
  }
  JOINT Spine
  {
    OFFSET 0.165834 0.87714 6.61349
    CHANNELS 3 Zrotation Xrotation Yrotation
    JOINT Spine1
    {
      OFFSET 7.38962 1.71661e-005 0
      CHANNELS 3 Zrotation Xrotation Yrotation
      JOINT Spine2
      {
        OFFSET 11.9445 1.14441e-005 0
        CHANNELS 3 Zrotation Xrotation Yrotation
        JOINT Spine3
        {
          OFFSET 14.7254 4.19617e-005 0
          CHANNELS 3 Zrotation Xrotation Yrotation
          JOINT Spine4
          {
            OFFSET 10.9679 0 0
            CHANNELS 3 Zrotation Xrotation Yrotation
            JOINT RightShoulder
            {
              OFFSET 2.46616 -1.6653 3.69651
              CHANNELS 3 Zrotation Xrotation Yrotation
              JOINT RightArm
              {
                OFFSET 13.0012 0 0
                CHANNELS 3 Zrotation Xrotation Yrotation
                JOINT RightForeArm
                {
                  OFFSET 28.7848 1.52588e-005 0
                  CHANNELS 3 Zrotation Xrotation Yrotation
                  JOINT RightHand
                  {
                    OFFSET 26.5688 1.52588e-005 0
                    CHANNELS 3 Zrotation Xrotation Yrotation
                    End Site
                    {
                      OFFSET 0 0 0
                    }
                  }
                }
              }
            }
            JOINT LeftShoulder
            {
              OFFSET 2.38034 -1.29275 -3.75231
              CHANNELS 3 Zrotation Xrotation Yrotation
              JOINT LeftArm
              {
                OFFSET 16.3182 6.10352e-005 0
                CHANNELS 3 Zrotation Xrotation Yrotation
                JOINT LeftForeArm
                {
                  OFFSET 27.0901 0 0
                  CHANNELS 3 Zrotation Xrotation Yrotation
                  JOINT LeftHand
                  {
                    OFFSET 24.5451 1.52588e-005 0
                    CHANNELS 3 Zrotation Xrotation Yrotation
                    End Site
                    {
                      OFFSET 0 0 0
                    }
                  }
                }
              }
            }
            JOINT Neck
            {
              OFFSET 5.0226 -0.0266342 0
              CHANNELS 3 Zrotation Xrotation Yrotation
              JOINT Head
              {
                OFFSET 6.69363 2.86102e-005 0
                CHANNELS 3 Zrotation Xrotation Yrotation
                End Site
                {
                  OFFSET 0 0 0
                }
              }
            }
          }
        }
      }
    }
  }
}
MOTION
Frames:	8
Frame Time:	0.0333333
2.6487 98.2792 -23.164 -178.349 -89.9979 -178.302 -172.267 2.72252 93.1123 -8.48869 7.72797 -0.0591271 63.1477 2.00349 1.06337 28.7808 5.42495e-006 -7.93072e-007 179.075 1.90337 88.4559 -7.5738 -0.823022 -0.0576538 62.7156 -1.25885 -0.638348 28.7808 1.45645e-005 2.92178e-005 0.00370263 6.32876 -90.047 14.1935 -9.98065e-007 1.27068e-006 2.52251 3.17123e-007 -4.88793e-006 -20.0126 -4.46189e-007 -0.0155673 -1.59086e-015 -2.14936e-015 -0.0155833 100.817 -18.5405 -85.5096 -1.78806 39.2884 -18.0539 -2.45619 0.0626384 -4.2329 -5.37983 -0.32 -0.0162438 -79.0529 -21.2202 94.1504 9.28561 -43.3983 -9.969 12.2707 43.3573 -12.3114 -4.2773 -0.155221 -0.0287854 1.7445 0.000409343 0.00168583 -7.40362 0.00138383 -0.00602114 
2.63165 98.2673 -23.1646 -145.412 -89.9568 -145.384 -172.263 2.75506 93.1049 -8.64961 7.79924 -0.0365534 63.2441 2.01939 1.07118 28.7808 5.42495e-006 -7.93072e-007 179.094 2.23046 88.4534 -8.31127 -0.814948 -0.0576537 63.0609 -1.25423 -0.641666 28.7808 1.45645e-005 2.92178e-005 0.00198088 6.32888 -90.0253 14.1935 -9.98065e-007 1.27068e-006 2.52251 3.17123e-007 -4.88793e-006 -20.0126 -4.46189e-007 -0.0155673 -1.59086e-015 -2.14315e-015 -0.0155833 100.755 -18.6092 -85.5702 -1.9241 39.3485 -17.9393 -2.47957 0.0626361 -4.26113 -5.37983 -0.32 -0.0162438 -79.0269 -21.142 94.2791 9.10384 -43.3337 -10.1414 12.1537 42.979 -12.2801 -4.27524 -0.155221 -0.0565055 1.60224 0.00526421 0.0298867 -7.2965 0.0216105 -0.0988377 
2.6272 98.2717 -23.163 -148.262 -89.9197 -148.23 -172.279 2.70208 93.1027 -8.61592 7.73839 -0.0233429 63.225 2.03269 1.07997 28.7808 5.42495e-006 -7.93072e-007 179.083 1.97593 88.4568 -7.85384 -0.832473 -0.057654 62.8879 -1.21782 -0.617424 28.7808 1.45645e-005 2.92178e-005 0.00295229 6.32882 -90.0379 14.1935 -9.98065e-007 1.27068e-006 2.52251 3.17123e-007 -4.88793e-006 -20.0126 -4.46189e-007 -0.0155673 1.58969e-015 -2.14936e-015 -0.0155833 100.734 -18.6112 -85.5388 -1.94291 39.3604 -17.9415 -2.48794 0.0626359 -4.26409 -5.37983 -0.32 -0.0162438 -79.0773 -21.2667 94.2427 9.26068 -43.4135 -10.1129 12.1529 43.0481 -12.2767 -4.08727 -0.155228 -0.0623388 1.53641 -0.0129105 0.0691844 -7.32536 0.0152524 -0.131998 
2.61775 98.2692 -23.1671 -127.262 -89.93 -127.242 -172.278 2.76613 93.0944 -8.69452 7.78617 -0.0212756 63.2334 2.05734 1.09318 28.7808 5.42495e-006 -7.93072e-007 179.091 2.15567 88.4538 -8.15759 -0.825408 -0.0576539 63.0079 -1.26198 -0.645223 28.7808 1.45645e-005 2.92178e-005 0.00217992 6.32887 -90.028 14.1935 -9.98065e-007 1.27068e-006 2.52251 3.17123e-007 -4.88793e-006 -20.0126 -4.46189e-007 -0.0155673 -5.8796e-019 -2.16178e-015 -0.0155833 100.746 -18.5908 -85.6181 -2.02122 39.3924 -17.7999 -2.4923 0.0626351 -4.27403 -5.37983 -0.32 -0.0162438 -79.0284 -21.1223 94.246 9.03237 -43.4012 -10.2023 12.356 43.4617 -12.343 -4.07162 -0.155203 -0.00654886 1.44358 -0.0247391 0.00514667 -7.2583 0.0114289 -0.065825 
2.62525 98.2704 -23.1561 -127.166 -89.8997 -127.149 -172.297 2.71371 93.0807 -8.65063 7.71631 -0.00959072 63.2256 2.05134 1.09049 28.7808 5.42495e-006 -7.93072e-007 179.079 2.02074 88.445 -7.92743 -0.855317 -0.0576543 62.9202 -1.2494 -0.636084 28.7808 1.45645e-005 2.92178e-005 0.00280355 6.32883 -90.0361 14.1935 -9.98065e-007 1.27068e-006 2.52251 3.17123e-007 -4.88793e-006 -20.0126 -4.46189e-007 -0.0155673 -1.59086e-015 -2.14936e-015 -0.0155833 100.729 -18.5719 -85.6743 -2.04891 39.3978 -17.7457 -2.49897 0.0626354 -4.26927 -5.37983 -0.32 -0.0162438 -79.1053 -21.158 94.0731 9.28218 -43.3959 -9.91299 12.3201 43.4182 -12.373 -4.07769 -0.153153 -0.0300755 1.32939 -0.00768792 -0.0342568 -7.25578 0.0116546 -0.0533013 
2.61927 98.2665 -23.1467 -98.5647 -89.8938 -98.5436 -172.283 2.77687 93.0913 -8.70997 7.7387 -0.0185448 63.2618 2.04293 1.08468 28.7808 5.42495e-006 -7.93072e-007 179.089 2.18632 88.4479 -8.18404 -0.930499 -0.0576555 63.043 -1.26468 -0.647188 28.7808 1.45645e-005 2.92178e-005 0.00187953 6.32889 -90.0242 14.1934 -2.63086e-005 2.62999e-005 2.52248 -2.34313e-005 2.13614e-005 -20.0127 -3.16992e-005 -0.0155673 -2.84258e-005 -3.16308e-005 -0.0155833 100.763 -18.5974 -85.7768 -2.11672 39.4111 -17.6354 -2.50055 0.0626347 -4.27885 -5.37983 -0.32 -0.0162438 -79.0274 -21.2319 94.0993 9.34411 -43.4349 -9.93523 12.348 43.3796 -12.4028 -4.11898 -0.149855 -0.104834 1.29916 0.027095 -0.02985 -7.26221 0.00373217 -0.0933637 
2.63197 98.2609 -23.1305 -86.7897 -89.8999 -86.7527 -172.293 2.72525 93.0907 -8.59571 7.709 -0.0206437 63.3411 2.11028 1.12662 28.7808 5.42495e-006 -7.93072e-007 179.082 2.17129 88.4602 -8.12642 -0.907128 -0.0576551 63.0211 -1.2784 -0.653716 28.7808 1.45645e-005 2.92178e-005 0.00398978 6.32876 -90.0471 14.194 0.000510671 -0.000491351 2.52307 0.000495795 -0.000517774 -20.0121 0.000641312 -0.0155673 0.000558687 0.000636114 -0.0155833 100.768 -18.6244 -85.8196 -2.13636 39.4457 -17.6224 -2.5303 0.062633 -4.29867 -5.37983 -0.32 -0.0162438 -79.0149 -21.2285 94.0759 9.2903 -43.4539 -9.94492 12.4079 43.3144 -12.4445 -4.23335 -0.146281 -0.0112461 1.26636 0.0154597 0.049932 -7.27756 -0.0153525 -0.20038 
2.62937 98.2602 -23.1204 -86.9195 -89.8685 -86.9299 -172.314 2.83393 93.0416 -8.82926 7.78504 0.0103291 63.2243 2.12315 1.12832 28.7808 5.42495e-006 -7.93072e-007 179.082 2.28579 88.4155 -8.3611 -0.92729 -0.0576554 63.1287 -1.30818 -0.673926 28.7808 1.45645e-005 2.92178e-005 0.00942223 6.32891 -90.0163 14.2097 0.0141118 -0.0142896 2.53873 0.013462 -0.0149057 -19.9964 0.0177481 -0.0155673 0.0162223 0.0177482 -0.0155833 100.713 -18.6525 -85.7778 -2.1259 39.4707 -17.7041 -2.53821 0.0626298 -4.33814 -5.37983 -0.32 -0.0162438 -79.094 -21.3313 94.0524 9.30079 -43.4613 -9.94894 12.4586 43.4399 -12.4614 -4.25308 -0.143406 -0.0876967 1.05158 0.017957 -0.0203607 -7.14868 0.0210249 -0.0748845 
